# xmcd
#
# Track frame offsets: 
#        150
#        16441
#        35297
#        46974
#        61457
#        79098
#        90856
#        102721
#        116800
#        128342
#        142286
#        152478
#        172846
#        184090
#        198060
#        209628
#        225110
#        241644
#        257424
#        275416
#        287550
#        307728
#        316866
#
# Disc length: 4413 seconds
#
# Revision: 0
# Processed by: cddbd v1.5.2PL0 Copyright (c) Steve Scherf et al.
# Submitted via: ExactAudioCopy v0.95b4
#
DISCID=24113b17
DTITLE=Os Filhos de Goiás - Grnades Sucessos
DYEAR=1900
DGENRE=Country
TTITLE0=Amor Distante
TTITLE1=Barquinha de Ouro
TTITLE2=Gaiola de Aço
TTITLE3=Sonhei com Você
TTITLE4=Tudo Acabado
TTITLE5=Vinte Anos
TTITLE6=Cuidado Menina
TTITLE7=Não Vá Embora
TTITLE8=Pobre Esquecido
TTITLE9=Menina Bonita
TTITLE10=Cai Sereno
TTITLE11=Cotovelo do Povo
TTITLE12=Triste Destino
TTITLE13=Garota Branca
TTITLE14=Gaiola de Pedra
TTITLE15=Dor de Cotovelo
TTITLE16=Tchau Maria Helena
TTITLE17=Adeus Mariana
TTITLE18=Maria de Fátima
TTITLE19=Gaiola de Bronze
TTITLE20=Os Mandamentos de Jesus
TTITLE21=A Menina Tem
TTITLE22=A Volta do Meu Bem
EXTD=
EXTT0=
EXTT1=
EXTT2=
EXTT3=
EXTT4=
EXTT5=
EXTT6=
EXTT7=
EXTT8=
EXTT9=
EXTT10=
EXTT11=
EXTT12=
EXTT13=
EXTT14=
EXTT15=
EXTT16=
EXTT17=
EXTT18=
EXTT19=
EXTT20=
EXTT21=
EXTT22=
PLAYORDER=
